<svg xmlns="http://www.w3.org/2000/svg" viewBox="0 0 466.7 120.57"><defs><style>.cls-1{fill:#231815;}</style></defs><g id="图层_2" data-name="图层 2"><g id="图层_1-2" data-name="图层 1"><path class="cls-1" d="M53.42,14.18a2.32,2.32,0,0,1,.13-.37C53.78,13.31,53.29,13.2,53.42,14.18Z"/><path class="cls-1" d="M59.36,55.61l-.74.1a2.73,2.73,0,0,0-1.24.72c-.22.18-.44.38-.65.58a2.21,2.21,0,0,1-1.61.58c-4.1-.14-8.2-.13-12.31,0,.76-2,1.52-3.89,2.27-5.84q4.7-12.16,9.33-24.35c1.05-2.76,2.1-5.53,3.14-8.29C58,17.82,58.62,16.52,59,15.2c.14-.52,1.08-2.27.91-2.79-.48-1.5-2.78-1.13-4.31-.8h0a2.52,2.52,0,0,0-1.8,3.53l-.15-.08a4.71,4.71,0,0,1-.2-.88l-.09.24c-.24.68-.49,1.35-.75,2-.9,2.42-1.82,4.84-2.73,7.26q-4.27,11.24-8.6,22.46l-4.49,11.7-1.2.06c-1.51.11-5.08.33-5.08,1.92,0,1.12,3.08,3.14,4.15,3.53-3.43,8.85-6.89,17.69-10.54,26.45a.69.69,0,0,1,0,.08l0,0-.3.7c-.16.37-.32.74-.49,1.11a9.55,9.55,0,0,1-1.86,2.65c-2.28,2.35-5.52,3.86-8.8,3a6.68,6.68,0,0,1-3.68-2.34c-1.3-1.74-1.86-3.52-3.74-4.85-1.23-.87-4.27-3.08-5-1.85S1,93.73,1.85,94.63a7.16,7.16,0,0,1,1.31,1.69A15,15,0,0,0,5,99.09a11.28,11.28,0,0,0,4.17,3,13.66,13.66,0,0,0,10.84,0,16.06,16.06,0,0,0,8.3-8c2.45-5.52,4.61-11.18,6.82-16.79q2.76-7,5.49-14,4.85-.21,9.69-.15a1.38,1.38,0,0,1,1.38,1.35,3.19,3.19,0,0,0,.09.63,2.8,2.8,0,0,0,5.12.67,22.87,22.87,0,0,1,1.54-2.37,21.09,21.09,0,0,1,2.9-3,2.82,2.82,0,0,0,.82-2c0-.69.33-2-.18-2.51S60.1,55.57,59.36,55.61Z"/><path class="cls-1" d="M26.15,36.36a14.8,14.8,0,0,0,10.48-8.61c.6-1.39,2.61-4.69,1.2-5.52-1.18-.69-5.43,1.29-6,2.69a9.66,9.66,0,0,1-6.95,6,5.72,5.72,0,0,1-6.27-3.32A11,11,0,0,1,18,20a14.81,14.81,0,0,1,6-7.69A36.29,36.29,0,0,1,35.22,7.42,50.86,50.86,0,0,1,48.94,5.59C58.37,5.64,67,8.54,75.66,12c4.86,2,9.78,3.8,15,4.32A35.58,35.58,0,0,0,106,14.11c1.42-.5,4.25-4.44,3.83-6s-3.89.07-5.32.57c-4.61,1.63-9.42,2.64-14.32,2s-9.8-2.77-14.44-4.65C66,2.12,55.9-.56,45.33.1A56.76,56.76,0,0,0,29.86,3.25,33,33,0,0,0,18,10C12.34,15.35,9.9,24.2,14.15,31.16A11.41,11.41,0,0,0,26.15,36.36Z"/><path class="cls-1" d="M207.51,63.06c-1.39-.82-5.06-.07-5.94,1.17-2.4,3.42-4.1,7.36-6.77,10.59-2,2.45-5.24,5-8.67,4.57-3.61-.47-4.13-4.75-5.43-7.45a14.14,14.14,0,0,0-2.29-3.39A26.76,26.76,0,0,0,187,64.4c4-3,8.41-9,4.88-13.94-4.12-5.75-10.48-.17-14,3.15-1.52,1.43-2.94,3-4.32,4.55a12.36,12.36,0,0,0,1.72-4.22,1.42,1.42,0,0,0,.13-.12c5.26-5.39,10.66-11,14-17.75a32.81,32.81,0,0,0,3.31-10.44,31.55,31.55,0,0,0-.1-7.71,7.66,7.66,0,0,0-.75-6.06c-1.13-1.7-5-3.82-6.16-1-3.83,9-7.16,18.31-10.65,27.48q-6.83,17.91-13.58,35.85c-.23.63-.46,1.25-.7,1.88-.62.61-1.26,1.21-1.93,1.78a21.83,21.83,0,0,1-2,1.53,5,5,0,0,1-2.15,1.08c-.18,0-.22-.07-.45-.13a1.61,1.61,0,0,1-.33-.2c.41.27.1.07,0,0a2.23,2.23,0,0,1-.21-.22c-.08-.13-.17-.36-.2-.42l-.08-.31c0-.16,0-.49,0-.58,0-.28,0-.55,0-.83s.06-.33.1-.5a27.26,27.26,0,0,1,3.29-7.61c1.14-2,2.44-3.94,3.51-6,1.46-2.79,3-6,2.72-9.25-.43-4.59-4.83-6.86-9-5.35-3.92,1.41-6.64,4.66-9.36,7.65-1,1.06-1.91,2.13-2.85,3.22l0,0a1.18,1.18,0,0,0-.52-.15l.6-1.69c.48-1.32,1-2.64,1.47-4l.6-1.57c.1-.26.2-.51.31-.76,0-.07.07-.18.11-.28.6-1.36,1.56-2.91.19-3.71-1.17-.69-4.65.84-5.24,2.24-3.41,8.08-6.14,15.69-8.87,23.71a22.72,22.72,0,0,1-3.57,4.5l-.09.08-.56.38-.24.12-.19.05,0,0c-.44-.48-.36-.41-.44-1.15a37.43,37.43,0,0,1-.06-4.49A49,49,0,0,1,127,62.77c.92-3.19-4.41-1.72-5.94,1.29a53.16,53.16,0,0,1-7.36,10.5,27.79,27.79,0,0,1-4,4.34c-1.09.81-1.83.52-2.22-.8a10.75,10.75,0,0,1,.16-5.13,24,24,0,0,1,1.71-5.18,47.91,47.91,0,0,1,7.44-11c1.48-1.7,6-7.2,8.4-4.32,1,1.16,5.72,3.56,6.73,2.56s-1.79-5.36-2.77-6.52c-3.84-4.55-10.33-1.75-13.81,1.61a54.59,54.59,0,0,0-8.19,10.1,3.89,3.89,0,0,0-1.78,1.11A85.81,85.81,0,0,1,96.53,72,34.24,34.24,0,0,1,91.88,76c-.78.55-4,3.15-4.27.82a16.79,16.79,0,0,1-.06-1.88A22.33,22.33,0,0,1,88,71.08c.47-2.48,1.17-4.92,1.86-7.36,1-3.6,2.66-8.12,1.42-11.85-1.19-3.53-4.57-5.13-7.49-7,0,0-3.55-2.27-4.7-4.07l-.12-.12a5.09,5.09,0,0,1-1-1.91s0-.15,0-.23A3.54,3.54,0,0,1,78,38a1.18,1.18,0,0,0,.13-.37,1.42,1.42,0,0,0,.13-.12.71.71,0,0,1,.22,0s0,0,0,0h0c-.16.07-.07,0,0,0h.05l.2,0a1.77,1.77,0,0,0,.28.14l.06.07,0,.07s.08.14.13.23.1.3.1.34a1.57,1.57,0,0,0,0,.16c0,.15,0,.3,0,.44s0,.1,0,.17-.08.5-.09.57,0,0,0,0c.93.88,3,2.57,5.23,2.53a11.73,11.73,0,0,0,.42-4.22c-.44-4.16-4.45-7.36-8.61-5.78-4.78,1.81-4.75,7.69-2.11,11.29a19.36,19.36,0,0,0,2.91,3.15c-2.34,6.39-5.1,12.33-7.69,18.64-.59,1.4-1.28,4.05,0,4.4,1.61.45,4.76-1.51,5.34-2.91,0-.05.13-.3.18-.44s.23-.51.26-.59c.28-.67.57-1.33.86-2,.74-1.73,1.49-3.44,2.22-5.16,1.19-2.83,2.37-5.66,3.47-8.51a22.16,22.16,0,0,1,2.94,2c.23.19.72.7.81.79a3.19,3.19,0,0,0,.31.58c.06.21.13.49.15.52a8,8,0,0,1,0,1.2,39.66,39.66,0,0,1-1.47,6.54c-1.54,5.56-3.74,12-2.12,17.78a6,6,0,0,0,2.83,3.77c1.8,1,3.74.53,5.51-.27a31.15,31.15,0,0,0,7.4-4.94,48,48,0,0,0,3.5-3.34,15.74,15.74,0,0,0,.28,4.39,7.31,7.31,0,0,0,5.09,5.66c2.85.74,5.49-.78,7.43-2.75,1.12-1.13,2.19-2.33,3.22-3.56a1.15,1.15,0,0,1,2,.55,7.72,7.72,0,0,0,.6,1.87,6.07,6.07,0,0,0,6.34,3.49,5.18,5.18,0,0,0-.25,1.44c0,2.06,7.41-1.65,7.82-3.23,2.34-8.87,7.05-13.84,13.07-20.58,1.38-1.54,2.75-3.1,4.2-4.57a12,12,0,0,1,3.92-3,2.69,2.69,0,0,1,1.68-.26c.26.08.28.37.29.44a8.31,8.31,0,0,1-.81,3.79c-1.85,4.59-5.3,8.9-7.29,13.65-1.11,2.64-2,5.55-1.38,8.43a7,7,0,0,0,7.14,5.5A8.77,8.77,0,0,0,158.33,85c1.15,1,6.75-1.44,7.13-2.89a31.82,31.82,0,0,1,1.5-4.4,52.19,52.19,0,0,0,5-6.61,2.4,2.4,0,0,1,1.73.66,10.68,10.68,0,0,1,1.15,1.31c1.22,1.62,1.73,3.63,2.52,5.46A10.15,10.15,0,0,0,187.66,85a16.67,16.67,0,0,0,11.1-6.19c3-3.61,5-7.9,7.65-11.72C207.28,65.82,208.74,63.77,207.51,63.06ZM183.35,32.19a41.82,41.82,0,0,1,2-5.21,6.3,6.3,0,0,1,1.9-2.15,26.35,26.35,0,0,1-2.87,8.85,43,43,0,0,1-3.83,6ZM78.22,37.52v0l-.09,0S78.16,37.55,78.22,37.52Zm75.14,40.22c0-.24,0-.1,0,0Zm23-14.39,1.29-1.51a55.32,55.32,0,0,1,4.24-4.42c.74-.69,1.51-1.36,2.29-2s1.73-1.63,2.57-1.79c1-.2.68,1.36.4,2A10.92,10.92,0,0,1,183.62,60,21.86,21.86,0,0,1,176.4,63.35Z"/><path class="cls-1" d="M331.07,6.5A9.27,9.27,0,0,0,322.86.62,9.92,9.92,0,0,0,315,4.35a23.84,23.84,0,0,0-4.05,7.89c-1.27,3.74-2.42,7.53-3.6,11.3-2.07,6.58-4.09,13.18-6.12,19.77-2.52,2.12-5.11,4.16-7.73,6.11-9.19,6.83-18.94,12.8-28.73,18.71.07-.2.13-.39.21-.58,2.76-7.38,5.35-14.82,8-22.22,2.77-7.57,5.54-15.14,8.24-22.72,1.4-3.93,2.53-7.9,3.8-11.88.25-.78.49-1.57.77-2.34.05-.12.09-.24.14-.35s0-.08.08-.1A.2.2,0,0,0,286,8a.42.42,0,0,0,0-.1c-.06.06,1.14-2.56.81-3.75s-2.31-1.33-3.71-.75A18.8,18.8,0,0,0,279.8,6,104.59,104.59,0,0,1,249,23.07c-5.4,1.88-11.57,3.26-15.56,7.65-3.6,3.93-5.32,10-2.06,14.71s9.54,5.72,14.93,6.13c1.51.1,5.45-2.4,5.45-3.83,0-1.62-3.93-1.67-5.45-1.77-3.29-.25-7.91-.6-10.11-3.35-2.55-3.22.23-7.66,3.08-9.59,4.28-2.9,9.67-3.9,14.44-5.74a113.11,113.11,0,0,0,14.87-7,111.33,111.33,0,0,0,9.59-6.13c-1.55,5.14-3.45,10.17-5.27,15.22-2.74,7.58-5.52,15.13-8.24,22.72C262.16,59,259.46,65.87,257,72.8l-.3.19c-5.34,3.25-10.6,6.64-16,9.84-4.7,2.82-9.49,5.78-13.41,9.65-3.62,3.59-6.7,8.56-5.42,13.85,1.31,5.45,7.08,8.47,12.34,8.54,6.65.09,12.14-4.55,15.81-9.68,3.86-5.38,6.2-11.75,8.22-18L260,81.89l-7.14,3.89c-.74,2.28-1.51,4.55-2.41,6.79-2.21,5.59-5.37,11.83-10.69,15a11.88,11.88,0,0,1-3.65,1.5,10.27,10.27,0,0,1-3.08.07,7.62,7.62,0,0,1-5-2.72,5.37,5.37,0,0,1-.3-5.13,15.92,15.92,0,0,1,3.82-5.13c3.79-3.66,8.42-6.38,12.92-9.06,3.32-2,6.6-4,9.87-6.08l7.48-4.61C274,69.08,286.26,61.87,297.6,53.29c.26-.19.51-.39.75-.58Q295.68,61.5,293,70.29L289.52,82c-.91,3-1.91,6-2.54,9.09s-1.43,6.52-3.29,9c-2.44,2.64,3.05,3.53,5.49.86,1.79-1.94,2.42-4.66,2.95-7.18.62-3,1.43-5.79,2.3-8.69,2.35-7.82,4.68-15.66,7.05-23.47q2.31-7.63,4.64-15.25a112.85,112.85,0,0,0,20-22C329.46,19.4,333.53,12.7,331.07,6.5Zm-9.81,15A97.6,97.6,0,0,1,309.38,35.8q3.14-10.15,6.37-20.3c.81-2.52,1.62-5.24,3.32-7.33,1.35-1.67,3.65-2.76,5.63-1.25s1.6,4.35,1,6.47A30.39,30.39,0,0,1,321.26,21.54Z"/><path class="cls-1" d="M286.09,7.85a.3.3,0,0,1,0,.08C286.17,7.8,286.17,7.79,286.09,7.85Z"/><path class="cls-1" d="M459.87,63.77a63.15,63.15,0,0,1-8.93,10.58A69.18,69.18,0,0,1,439,84c-.46.29-.94.57-1.42.85,3.25-8.37,7.23-18.48,10.5-26.86,1.15-2.94-5.13-1.5-6.55,1.31a119.79,119.79,0,0,1-6.27,10.88,66.15,66.15,0,0,1-3.87,5.69c-.75.92-2.94,3.68-4.17,3.33.07,0-.34-.33-.42-.44a9.64,9.64,0,0,1-1-1.55,11.9,11.9,0,0,1-1.15-3.37,13.67,13.67,0,0,1,0-5c.42-.79.83-1.58,1.2-2.39.6-1.32,2.05-3,.93-3.89A25.78,25.78,0,0,1,433,54.65a20.07,20.07,0,0,1,6.09-3.81c2.27-.82,3.9-.86,5.5,1.11.95,1.17,4.55,3.2,5.54,2.2,1.16-1.15-.63-5-1.58-6.16-4.5-5.57-12-2.92-16.83.59a31.93,31.93,0,0,0-11.24,14.56,24.25,24.25,0,0,0-1.07,3.65,42.09,42.09,0,0,1-4.77,6.69,39.83,39.83,0,0,1-4.41,4.4,21.83,21.83,0,0,1-2.05,1.53A5,5,0,0,1,406,80.49c-.18,0-.22-.07-.45-.13a1.61,1.61,0,0,1-.33-.2c.41.27.1.07,0,0a2.23,2.23,0,0,1-.21-.22c-.08-.13-.17-.36-.2-.42l-.08-.31c0-.16,0-.49,0-.58a5.77,5.77,0,0,1,0-.83c0-.17.06-.33.1-.5a27,27,0,0,1,3.29-7.61c1.14-2,2.44-3.94,3.51-6,1.46-2.79,3-6,2.72-9.25-.43-4.59-4.83-6.86-9-5.35-3.92,1.41-6.64,4.66-9.36,7.65C395,57.8,394,58.87,393.1,60l0,0a1.18,1.18,0,0,0-.52-.15l.6-1.69c.48-1.32,1-2.64,1.47-4l.6-1.57c.1-.26.2-.51.31-.76,0-.07.07-.18.11-.28.6-1.36,1.56-2.91.19-3.71-1.18-.69-4.65.84-5.24,2.24-3.41,8.08-6.14,15.69-8.87,23.72a23,23,0,0,1-3.57,4.49l-.09.08-.56.38-.24.12-.19.05,0,0c-.44-.48-.36-.41-.44-1.15a37.43,37.43,0,0,1-.06-4.49,49,49,0,0,1,1.81-10.45c.92-3.19-4.41-1.72-5.94,1.29A53.16,53.16,0,0,1,365,74.56a27.79,27.79,0,0,1-4,4.34c-1.09.81-1.83.52-2.22-.8A10.75,10.75,0,0,1,359,73c.1-.48.22-1,.35-1.43a53.72,53.72,0,0,0,4-7.74c.28-.68.75-1.43,1-2.13,1.19-1.69,2.49-3.31,3.84-4.87s6-7.2,8.4-4.32c1,1.16,5.72,3.56,6.73,2.56s-1.79-5.36-2.77-6.52c-3.84-4.55-10.33-1.75-13.81,1.61a54.71,54.71,0,0,0-10,13.12,36.1,36.1,0,0,0-2.51,5.8,28.27,28.27,0,0,1-8.73,8.58A9.33,9.33,0,0,1,343,78.9a1.35,1.35,0,0,1-1.36-.16,2.43,2.43,0,0,1-.59-1c0-.08-.11-.53-.13-.54a9.57,9.57,0,0,1,0-1.2c.09-2.71,1.31-5.73,2.36-8.42,2.57-5.36,4.53-11,7.15-16.34.67-1.36,1.26-1.69-.12-2.49s-4.9.1-5.56,1.46c-.22.43-4.7,10.27-6.73,15.53l-.15.37a38.46,38.46,0,0,1-6,8.9c-1.6,1.72-3.63,3.83-6,4.31a3,3,0,0,1-2.26-.45,3.4,3.4,0,0,1-.74-.69s-.4-.67-.31-.47c-.7-1.56-.31-3.33.21-5.14a29.77,29.77,0,0,1,1.85-4.75c2.63-5.48,4.8-11.14,7.29-16.66.63-1.38,1.46-2.08.06-2.9-1.2-.7-5,.6-5.6,2-2.39,5.3-3.77,8.81-6.27,14.07-2,4.29-4.63,9.76-3,14.6a8.93,8.93,0,0,0,5.58,5.66c2.95,1,6.15,0,8.65-1.65a24.93,24.93,0,0,0,2.91-2.3,1.5,1.5,0,0,1,2.34.39,6.73,6.73,0,0,0,7.56,3.4A18.32,18.32,0,0,0,350.54,81c.94-.69,1.86-1.41,2.73-2.18,0,.12,0,.24.07.36a7.31,7.31,0,0,0,5.09,5.66c2.85.74,5.49-.78,7.43-2.75,1.12-1.13,2.19-2.33,3.22-3.56a1.15,1.15,0,0,1,2,.55,7.72,7.72,0,0,0,.6,1.87A6.07,6.07,0,0,0,378,84.42a5.18,5.18,0,0,0-.25,1.44c0,2.06,7.41-1.65,7.82-3.23,2.34-8.87,7.05-13.84,13.07-20.58,1.38-1.54,2.75-3.1,4.19-4.57a12.19,12.19,0,0,1,3.93-3,2.69,2.69,0,0,1,1.68-.26c.26.08.28.37.29.44a8.31,8.31,0,0,1-.81,3.79c-1.85,4.59-5.3,8.9-7.29,13.65-1.11,2.64-2,5.55-1.38,8.43a7,7,0,0,0,7.14,5.5c2.46-.23,4.57-1.72,6.47-3.2A39.58,39.58,0,0,0,418.12,78c.48-.53.94-1.07,1.4-1.62A16,16,0,0,0,422,81.56c2.34,3.3,6,4.1,9.44,1.9.33-.22.66-.45,1-.7q-1,2.49-1.91,5a2.53,2.53,0,0,1-.36.07l-.55.09-2.07.26c-5.28.69-10.55,1.57-15.36,3.94a19.87,19.87,0,0,0-10.65,12.51c-1.48,5.85.8,12.06,6.46,14.64a13.49,13.49,0,0,0,14.68-2c3.79-3.17,6.12-7.94,7.68-12.53.86-2.56,1.77-5.11,2.69-7.66a36.54,36.54,0,0,1-6.25.85c-1.37,4.14-2.62,8.33-5,12-2.16,3.25-5.36,5.86-9.31,5a7.54,7.54,0,0,1-4.72-2.84,7.68,7.68,0,0,1-.62-6.63c1.34-4.36,5.16-7.51,9.31-9.11a50.47,50.47,0,0,1,11.9-2.64,15.29,15.29,0,0,0,6.47-1.37l.36-.12a36.49,36.49,0,0,0,6.74-3.35,77.73,77.73,0,0,0,13.07-10.5,98.16,98.16,0,0,0,11.44-14.11C468.29,61.17,461.82,60.75,459.87,63.77Zm-55.13,14c0-.24,0-.1,0,0Z"/></g></g></svg>