<?xml version="1.0" standalone="no"?><!DOCTYPE svg PUBLIC "-//W3C//DTD SVG 1.1//EN" "http://www.w3.org/Graphics/SVG/1.1/DTD/svg11.dtd"><svg t="1614239178690" class="icon" viewBox="0 0 1024 1024" version="1.1" xmlns="http://www.w3.org/2000/svg" p-id="3225" xmlns:xlink="http://www.w3.org/1999/xlink" width="200" height="200"><defs><style type="text/css"></style></defs><path d="M438.4 849.088l222.688-646.688c0.192-0.512 0.288-1.088 0.384-1.6l-223.104 648.288z m222.816-680.384h-67.488a8.128 8.128 0 0 0-7.584 5.344l-0.032 0.064-231.392 671.904a8 8 0 0 0 7.616 10.592h67.808a8.128 8.128 0 0 0 7.584-5.344l0.032-0.064 0.704-2.112 230.496-669.696a8.096 8.096 0 0 0-7.712-10.688z m293.376 333.408a17.376 17.376 0 0 0-2.656-2.656l-0.032-0.032-219.008-171.296a8 8 0 0 0-12.896 6.272v81.344c0 2.496 1.088 4.8 3.104 6.304l115.008 90.016-115.008 90.016a8.064 8.064 0 0 0-3.104 6.304v81.312a8 8 0 1 0 12.896 6.336v-0.032l219.008-171.296a15.936 15.936 0 0 0 2.656-22.528l0.032 0.032zM291.104 328.096l-219.008 171.296a16.064 16.064 0 0 0-0.032 25.152l0.032 0.032 219.008 171.296a8 8 0 0 0 12.896-6.304v-81.312-0.096a7.744 7.744 0 0 0-3.072-6.176h-0.032l-115.008-90.016 115.008-90.016a8.064 8.064 0 0 0 3.104-6.304v-81.312a8 8 0 0 0-12.928-6.272h0.032z" p-id="3226" fill="#333333"></path></svg>