<?xml version="1.0" standalone="no"?><!DOCTYPE svg PUBLIC "-//W3C//DTD SVG 1.1//EN" "http://www.w3.org/Graphics/SVG/1.1/DTD/svg11.dtd"><svg t="1614239439717" class="icon" viewBox="0 0 1024 1024" version="1.1" xmlns="http://www.w3.org/2000/svg" p-id="3978" xmlns:xlink="http://www.w3.org/1999/xlink" width="200" height="200"><defs><style type="text/css"></style></defs><path d="M723.984397 0a415.040666 415.040666 0 0 0-115.044565 17.195273l-2.661173 0.869999A446.923568 446.923568 0 0 0 534.88757 11.002928C485.707043 10.132929 443.43533 22.36409 409.351842 42.629948 375.780119 30.757021 306.129028 10.235282 232.690883 14.329394c-51.125231 2.865879-106.907516 18.730565-148.258053 63.305216-41.197008 44.523475-62.998158 113.509272-58.392281 207.315628 1.228234 25.895262 8.444107 68.115799 20.470563 122.823378 11.975279 54.656403 28.812318 118.678089 49.794645 177.070371 20.982327 58.392281 44.011711 110.848099 79.988725 146.518055 17.911743 17.911743 42.681124 32.855254 71.8005 31.62702 20.470563-0.818823 38.996423-10.030576 54.912285-23.541147 7.778814 10.439987 16.120568 15.045864 23.643501 19.242329 9.518812 5.322346 18.832918 8.955871 28.402906 11.361162 17.246449 4.401171 46.775237 10.235282 81.370488 4.247642 11.770574-1.99588 24.155264-5.936463 36.539955-11.514692 0.460588 14.073512 1.023528 27.839966 1.535292 41.811125 1.739998 44.16524 2.814702 84.952837 15.81351 120.776323 2.047056 5.83411 7.778814 35.925838 30.34761 62.53757 22.517619 26.611732 66.734036 43.192888 117.040444 32.18996 35.516427-7.778814 80.654018-21.749973 110.643394-65.352272 29.682316-43.090535 42.988182-104.911636 45.649355-205.115042 0.56294-4.759406 1.330587-9.569988 2.251762-14.329395l7.062345 0.665294h0.869999c37.870542 1.739998 78.965197-3.735878 113.304566-20.061152 30.398786-14.329394 53.376993-28.91467 70.111679-54.70758 4.196465-6.397051 8.802342-14.124689 10.030576-27.430554 1.27941-13.305866-6.192345-34.083488-18.628213-43.704652-24.820558-19.293506-40.429362-11.924103-57.215224-8.392931-16.478803 3.735878-33.264665 5.782934-50.152879 6.243521a992.566427 992.566427 0 0 0 102.608697-249.280281c11.719397-46.058767 18.269978-88.535185 18.832918-125.689258 0.511764-37.154072-2.456468-70.009326-24.257617-98.463408C900.747709 25.588204 804.945474 1.023528 730.842035 0.153529h-6.857638V0z m-1.944704 27.277025c70.060502-0.665293 159.568039 19.447035 223.845607 103.325167 14.482923 18.832918 18.781742 46.365825 18.269978 80.34696-0.511764 33.878782-6.652933 74.51285-17.911743 118.985148a966.415283 966.415283 0 0 1-120.981027 276.65966c2.047056 1.535292 4.247642 2.763526 6.601756 3.684702 12.077632 5.117641 39.712892 9.518812 94.778707-2.047057 13.868806-2.968232 24.052912-4.964112 34.544075 3.224114a22.415267 22.415267 0 0 1 7.676462 18.116448 30.398786 30.398786 0 0 1-5.475876 14.329394c-10.644693 16.325274-31.62702 31.780549-58.596987 44.523475-23.848206 11.361163-58.034046 17.297626-88.33048 17.655861a132.751602 132.751602 0 0 1-41.145831-4.810583l-0.767646-0.307058c-4.605877 45.188768-15.148217 134.440423-22.005856 175.176843-5.527052 32.855254-15.199393 58.955222-33.6229 78.50461-18.37233 19.498211-44.369945 31.268785-79.374608 38.945246-43.346417 9.518812-74.973437-0.71647-95.341647-18.218801-20.317034-17.502331-29.682316-40.736421-35.260545-54.912286-3.838231-9.82587-5.83411-22.517619-7.778814-39.508186a883.458326 883.458326 0 0 1-4.298818-61.155807c-1.27941-35.823485-1.688821-71.698147-1.228234-107.572809-18.116448 16.888215-40.634068 28.147024-64.840509 32.394666a167.551559 167.551559 0 0 1-69.753443-3.838231 93.857532 93.857532 0 0 1-21.698797-8.54646c-7.164697-3.889407-13.868806-8.290578-18.423507-16.939391a24.308794 24.308794 0 0 1-2.354115-16.274098 26.099968 26.099968 0 0 1 9.109401-14.124688c8.239402-6.857639 19.191153-10.695869 35.721132-14.175865 29.989375-6.294698 40.480538-10.644693 46.87759-15.762334 5.424699-4.452347 11.565868-13.408219 22.415266-26.560555a50.511114 50.511114 0 0 1-0.102353-1.739998 121.646321 121.646321 0 0 1-55.577578-15.250569c-6.243522 6.704109-38.228777 41.248185-77.276376 89.200478-16.37645 20.061152-34.492899 31.575844-53.632875 32.394666-19.139976 0.818823-36.386426-9.007048-51.125231-23.541147-29.324082-29.170552-52.762876-79.272255-73.182263-135.873363-20.36821-56.652283-36.949366-119.752794-48.71994-173.488022C61.249917 346.361927 54.23875 303.066686 53.266398 282.135536c-4.401171-88.791067 15.967039-148.616288 50.818173-186.333301 34.90231-37.768189 82.752251-52.046407 129.425135-54.758756 83.724603-4.912935 163.25274 24.871734 179.322132 31.268785 30.961727-21.494091 70.879325-34.851134 120.776322-34.032311 23.6435 0.358235 47.235824 3.479996 70.162855 9.314106l0.869999-0.358235c10.081752-3.633525 20.419387-6.704109 30.859374-9.160577a394.058339 394.058339 0 0 1 86.488129-10.695869V27.277025z m6.345875 28.607612h-6.141169a357.72309 357.72309 0 0 0-71.135207 8.188225 314.12079 314.12079 0 0 1 119.036325 95.955765c19.191153 25.025263 35.107016 52.558171 47.235824 81.882252 4.605877 11.25881 7.676461 20.777622 9.467635 28.147024 0.869999 3.684701 1.432939 6.806462 1.637645 10.030576 0.204706 2.047056 0 4.145289-0.511764 6.141169 0 0.153529-0.153529 0.460588-0.204705 0.562941 1.228234 37.358778-7.82999 62.691099-8.904695 98.361055-0.818823 25.844086 5.629405 56.191696 7.215873 89.354008 1.535292 31.115256-2.149409 65.301096-22.005855 98.87282 1.739998 2.047056 3.224114 4.094113 4.810582 6.141169 52.353465-84.236367 90.070478-177.377429 110.233982-256.854391 10.747046-42.783477 16.52998-81.524017 16.990568-112.229862 0.409411-30.705845-5.117641-52.967582-12.282338-62.281688-56.038166-73.182263-131.881603-91.810475-195.493878-92.322239z m-200.099754 10.900575c-49.334057 0.153529-84.748131 15.352922-111.564569 38.1776-27.686437 23.541148-46.263473 55.884637-58.494634 88.89342A384.130116 384.130116 0 0 0 336.834873 296.823165l0.511764-0.358235a213.712678 213.712678 0 0 1 55.475226-22.005856c20.982327-4.861759 43.551123-6.397051 63.970509 1.688822 20.470563 8.085872 37.409954 27.123496 43.551123 56.089343 29.426434 138.89277-9.160577 190.529766-23.336442 229.526188a416.064194 416.064194 0 0 0-13.81763 43.192888c1.791174-0.409411 3.582349-0.921175 5.373523-1.125881 10.030576-0.818823 17.911743 2.55882 22.517619 4.605877 14.329394 6.089993 24.155264 18.781742 29.426435 33.264665 1.381763 3.787054 2.405291 7.881167 2.968232 12.128808 0.614117 1.739998 0.921175 3.582349 0.869998 5.4247a2401.45293 2401.45293 0 0 0 0.511765 159.41451c0.972352 22.927031 2.405291 43.141712 4.196465 59.10875 1.791174 15.864686 4.349995 27.993495 5.936463 32.087608 5.373523 13.664101 13.203513 31.524667 27.277026 43.704652 14.124689 12.077632 34.390546 20.214681 71.391088 12.077632 32.087608-7.011168 51.841701-16.785862 65.096391-30.808197 13.203513-14.022336 21.08468-33.571723 26.099968-63.458745 7.625285-44.779357 22.824678-174.665079 24.667028-199.076226-0.869999-18.423507 1.791174-32.599372 7.574109-43.397594a49.794645 49.794645 0 0 1 23.029383-21.494091c3.99176-1.842351 7.676461-3.070584 10.747046-3.99176a253.681453 253.681453 0 0 0-10.132929-13.81763 190.888001 190.888001 0 0 1-27.839966-46.928766 356.392503 356.392503 0 0 0-10.747045-20.572916c-5.527052-10.235282-12.53822-23.029383-19.907623-37.409954-14.687629-28.812318-30.705845-63.663451-38.996423-97.644586-8.239402-33.981135-9.467635-69.08815 11.770574-93.908708 18.781742-22.005855 51.790525-31.115256 101.329287-25.997615-1.535292-4.452347-2.354115-8.188225-4.861758-14.175865a335.000765 335.000765 0 0 0-43.448771-75.229319c-41.964654-54.758756-109.926924-109.108101-214.940912-110.848099h-4.759406v-0.102353z m-277.37613 2.200586a280.446714 280.446714 0 0 0-15.864686 0.511764c-42.118184 2.456468-82.035782 14.943511-110.541041 45.802884-28.556435 30.91055-47.338177 81.524017-43.244064 165.299797 0.767646 15.864686 7.522932 60.336985 19.139976 113.099861 11.565868 52.814053 27.993495 114.942212 47.696412 169.854497 19.754093 54.861109 43.704652 102.659874 66.426977 125.22867 11.412339 11.309986 21.340562 15.864686 30.398787 15.506451 9.058224-0.460588 19.958799-5.782934 33.264665-22.108208a1832.627159 1832.627159 0 0 1 75.587554-87.358128 150.86805 150.86805 0 0 1-48.71994-134.33807c4.298818-31.473491 4.861759-60.951102 4.349994-84.236367-0.511764-22.722325-2.047056-37.819365-2.047056-47.235824v-1.023528l-0.051177-0.255882c0-49.129351 8.341754-97.849291 24.718205-144.010411 11.668221-31.729373 29.119376-63.97051 55.219344-90.070478-25.63938-8.597636-71.135207-21.749973-120.469263-24.206441a310.947853 310.947853 0 0 0-15.864687-0.460587zM768.763753 294.264344c-28.35173 0.409411-44.267593 7.82999-52.609347 17.604684-11.82175 13.868806-12.947631 38.1776-5.629404 68.115799 7.318226 29.989375 22.466443 63.458746 36.642307 91.349888 7.113521 13.971159 13.971159 26.509379 19.549388 36.693484 5.629405 10.235282 9.723517 17.451155 12.179985 23.6435 2.302938 5.731758 4.861759 10.747046 7.420579 15.455275 11.002928-23.694677 12.947631-46.928766 11.821751-71.135206-1.432939-29.989375-8.239402-60.644043-7.26705-91.708123 1.125881-36.284073 8.188225-59.876397 8.802342-87.972245a236.946768 236.946768 0 0 0-30.910551-2.047056z m-343.905459 4.912935c-8.597636 0.051176-17.246449 1.125881-25.690557 3.172938a192.423293 192.423293 0 0 0-48.105823 19.139976c-5.117641 2.814702-10.030576 6.038816-14.636453 9.723517l-0.869998 0.818823c0.204706 6.243522 1.432939 21.340562 1.944703 43.551123 0.511764 24.308794-0.102353 55.321697-4.708229 88.89342-9.979399 72.926381 41.862301 133.314542 102.762226 133.416895 3.582349-14.994687 9.365283-30.194081 15.25057-46.16112 16.939391-46.672884 50.306409-80.705195 22.210561-213.507973-4.605877-21.749973-13.715277-30.501139-26.253498-35.46525a60.388161 60.388161 0 0 0-21.852326-3.582349z m330.65077 8.69999h2.098233c2.55882 0 5.066464 0.358235 7.522932 0.921175 2.251762 0.511764 4.196465 1.27941 5.782934 2.354115 1.637645 1.023528 2.763526 2.763526 3.070584 4.708229v0.307059a10.388811 10.388811 0 0 1-1.484116 5.782934 28.454083 28.454083 0 0 1-4.605876 6.397051 28.147024 28.147024 0 0 1-16.069392 9.058224 25.588204 25.588204 0 0 1-22.51762-9.416459 11.156457 11.156457 0 0 1-2.661173-5.424699 7.369403 7.369403 0 0 1 1.739998-5.475876 16.069392 16.069392 0 0 1 4.861759-3.838231 52.865229 52.865229 0 0 1 22.261737-5.527052v0.15353z m-326.556657 7.164697c2.200586 0 4.5547 0.204706 6.908815 0.511764a45.035239 45.035239 0 0 1 16.427626 5.219993 18.679389 18.679389 0 0 1 5.578229 4.554701c1.688821 1.99588 2.507644 4.605877 2.251762 7.215873a12.998808 12.998808 0 0 1-3.121761 6.601757 27.328202 27.328202 0 0 1-5.98764 5.527052 26.304674 26.304674 0 0 1-18.730565 4.810582 30.194081 30.194081 0 0 1-17.502331-9.723517 30.296433 30.296433 0 0 1-4.964112-6.959992 12.128809 12.128809 0 0 1-1.688821-7.574108c0.614117-4.605877 4.349995-7.011168 7.983519-8.290578a35.465251 35.465251 0 0 1 12.794102-1.739998l0.051177-0.153529z m378.347181 313.199615h-0.102352c-6.141169 2.251762-11.207633 3.172937-15.455275 5.11764a19.037624 19.037624 0 0 0-9.9794 9.109401c-2.661173 4.912935-4.912935 13.612924-4.247642 28.402906a21.08468 21.08468 0 0 0 6.192346 3.019408c7.164697 2.200586 19.139976 3.633525 32.497018 3.42882 26.611732-0.307058 59.415809-6.652933 76.815788-14.943511 14.329394-6.755286 27.584084-15.608804 39.405834-26.202321-58.238752 12.282338-91.094006 9.007048-111.25751 0.511764a54.70758 54.70758 0 0 1-13.81763-8.54646v0.051176z m-335.358999 3.940583h-0.869999c-2.251762 0.255882-5.475876 1.023528-11.668221 8.034696-14.5341 16.632332-19.651741 27.123496-31.62702 36.847014-11.975279 9.723517-27.532907 14.943511-58.648163 21.494091-6.652933 1.177057-13.152337 3.224114-19.293506 6.141169 1.228234 1.023528 1.125881 1.228234 2.968232 2.200585 4.503524 2.55882 10.388811 4.861759 15.09704 6.089993 13.357042 3.377643 35.311721 7.369403 58.238752 3.377643 22.927031-3.99176 46.775237-15.199393 67.143447-44.318769 3.479996-5.066464 3.889407-12.487043 1.023528-20.470563-2.968232-7.932343-9.365283-14.841158-13.81763-16.734686a26.867614 26.867614 0 0 0-8.54646-2.55882v-0.102353z" fill="#447ECD" p-id="3979"></path></svg>