<?xml version="1.0" standalone="no"?><!DOCTYPE svg PUBLIC "-//W3C//DTD SVG 1.1//EN" "http://www.w3.org/Graphics/SVG/1.1/DTD/svg11.dtd"><svg t="1614239418963" class="icon" viewBox="0 0 1024 1024" version="1.1" xmlns="http://www.w3.org/2000/svg" p-id="3699" xmlns:xlink="http://www.w3.org/1999/xlink" width="200" height="200"><defs><style type="text/css"></style></defs><path d="M512 512m-512 0a512 512 0 1 0 1024 0 512 512 0 1 0-1024 0Z" fill="#FFFFFF" p-id="3700"></path><path d="M512 0c282.766222 0 512 229.233778 512 512a512 512 0 1 1-1024 0C0 229.233778 229.233778 0 512 0z m19.2 258.133333c-6.456889 5.546667-12.743111 11.377778-18.773333 17.237334a449.706667 449.706667 0 0 0-12.430223-11.548445c-68.266667-60.586667-136.647111-86.101333-177.607111-62.236444-39.281778 22.784-51.000889 90.453333-34.503111 175.047111 1.678222 8.391111 3.470222 16.64 5.575111 25.031111-9.386667 2.645333-18.716444 5.603556-27.904 8.874667C185.457778 438.272 128 482.076444 128 527.36c0 46.791111 61.212444 93.752889 144.440889 122.254222 6.769778 2.247111 13.511111 4.494222 20.423111 6.428445-2.247111 8.96-4.266667 17.948444-6.001778 27.022222-15.758222 83.228444-3.470222 149.248 35.84 171.889778 40.504889 23.409778 108.600889-0.597333 174.904889-58.652445 5.233778-4.636444 10.496-9.443556 15.729778-14.535111 6.599111 6.428444 13.511111 12.600889 20.423111 18.602667 64.199111 55.182222 127.630222 77.539556 166.798222 54.897778 40.504889-23.409778 53.703111-94.350222 36.608-180.764445a636.871111 636.871111 0 0 0-4.522666-20.252444c4.807111-1.336889 9.443556-2.844444 14.108444-4.352 86.556444-28.643556 149.248-74.979556 149.248-122.538667 0-45.454222-59.107556-89.571556-140.686222-117.617778a752.924444 752.924444 0 0 0-24.32-7.651555c1.365333-5.546667 2.56-11.093333 3.754666-16.64 18.460444-89.400889 6.314667-161.251556-34.645333-184.945778-39.452444-22.641778-103.822222 0.881778-168.903111 57.6z m170.24 404.536889c1.479111 6.087111 2.844444 12.174222 4.067556 18.318222 7.338667 32.398222 8.533333 66.133333 3.754666 99.441778a66.673778 66.673778 0 0 1-24.746666 46.933334c-23.864889 13.824-74.723556-4.181333-129.621334-51.285334-6.286222-5.404444-12.600889-11.235556-19.057778-17.237333 22.926222-25.315556 44.088889-52.195556 63.317334-80.412445 34.417778-2.844444 68.608-8.106667 102.286222-15.758222z m-377.230222 1.052445a750.08 750.08 0 0 0 101.831111 14.705777c19.825778 28.046222 41.557333 54.897778 64.824889 80.099556-4.835556 4.664889-9.614222 9.159111-14.421334 13.368889a274.545778 274.545778 0 0 1-84.593777 52.906667c-16.64 7.964444-35.84 8.732444-52.935111 1.991111-23.864889-13.824-33.763556-66.759111-20.252445-138.012445 1.649778-8.391111 3.413333-16.782222 5.546667-25.031111z m233.386666 17.123555a646.826667 646.826667 0 0 1-44.373333 54.584889 710.087111 710.087111 0 0 1-45.482667-54.442667 1067.207111 1067.207111 0 0 0 89.884445-0.142222zM512 406.357333c23.409778 0 46.506667 0.853333 68.835556 2.531556 12.8 18.944 24.945778 38.314667 36.465777 58.026667 11.548444 19.825778 22.357333 40.078222 32.540445 60.615111a994.759111 994.759111 0 0 1-68.693334 119.694222c-22.357333 1.649778-45.596444 2.417778-69.12 2.417778-23.580444 0-46.364444-0.768-68.437333-2.104889a911.274667 911.274667 0 0 1-69.12-119.409778 944.355556 944.355556 0 0 1 32.085333-60.899556c11.377778-19.939556 23.694222-39.310222 36.608-58.339555a939.52 939.52 0 0 1 68.835556-2.56zM357.347556 566.044444a990.464 990.464 0 0 0 45.169777 77.994667 678.200889 678.200889 0 0 1-69.603555-11.235555c6.599111-21.617778 14.848-43.946667 24.462222-66.759112z m309.902222-1.194666c9.585778 21.703111 18.033778 43.889778 25.344 66.446222-23.239111 5.262222-46.791111 9.301333-70.485334 12.003556a1006.705778 1006.705778 0 0 0 45.141334-78.449778z m-365.226667-132.152889c10.183111 32.568889 22.471111 64.426667 36.721778 95.402667a819.854222 819.854222 0 0 0-37.205333 96.739555c-6.257778-1.792-12.430222-3.726222-18.574223-5.831111-31.971556-10.040889-68.266667-25.941333-94.520889-46.819556a67.328 67.328 0 0 1-28.188444-44.828444c0-27.448889 47.388444-62.577778 115.797333-86.414222 8.533333-2.986667 17.237333-5.688889 25.941334-8.248889z m420.295111 0.284444c7.793778 2.275556 15.274667 4.664889 22.471111 7.082667 69.916444 23.978667 118.954667 59.676444 118.954667 86.983111 0 29.411556-52.337778 67.356444-127.203556 92.103111a313.742222 313.742222 0 0 1-12.743111 3.896889 762.197333 762.197333 0 0 0-38.257777-95.687111 758.499556 758.499556 0 0 0 36.778666-94.350222zM512 459.320889a68.693333 68.693333 0 1 0 0 137.386667 68.693333 68.693333 0 0 0 0-137.386667z m-110.250667-46.222222c-7.964444 12.458667-15.758222 25.201778-23.096889 38.115555a887.466667 887.466667 0 0 0-21.304888 38.968889 714.353778 714.353778 0 0 1-24.007112-65.365333c21.617778-4.835556 44.572444-8.704 68.408889-11.719111z m220.501334 0c24.177778 3.015111 47.246222 7.054222 68.835555 12.003555-6.883556 22.186667-14.990222 43.804444-24.120889 65.109334a1250.531556 1250.531556 0 0 0-21.76-39.310223 973.624889 973.624889 0 0 0-22.954666-37.802666z m61.639111-184.632889c25.372444 14.535111 35.100444 73.358222 19.2 150.584889-1.024 5.12-2.076444 10.069333-3.413334 15.018666a767.914667 767.914667 0 0 0-100.977777-15.928889 758.328889 758.328889 0 0 0-63.886223-79.644444c5.831111-5.546667 11.548444-10.808889 17.550223-16.042667 55.779556-48.583111 107.832889-67.640889 131.527111-53.987555z m-205.482667 59.534222c3.754667 3.299556 7.509333 6.912 11.377778 10.524444-23.239111 25.031111-44.686222 51.740444-64.341333 79.644445a790.755556 790.755556 0 0 0-100.778667 15.587555c-1.962667-7.651556-3.612444-15.445333-5.262222-23.239111-14.108444-72.618667-4.807111-127.345778 18.887111-140.999111 25.201778-14.705778 81.152 6.286222 140.117333 58.481778zM512.284444 321.422222a660.309333 660.309333 0 0 1 44.373334 53.703111 982.186667 982.186667 0 0 0-89.230222 0A759.296 759.296 0 0 1 512.284444 321.422222z" fill="#00C2D3" p-id="3701"></path></svg>