<?xml version="1.0" standalone="no"?><!DOCTYPE svg PUBLIC "-//W3C//DTD SVG 1.1//EN" "http://www.w3.org/Graphics/SVG/1.1/DTD/svg11.dtd"><svg t="1614510927490" class="icon" viewBox="0 0 1024 1024" version="1.1" xmlns="http://www.w3.org/2000/svg" p-id="3051" xmlns:xlink="http://www.w3.org/1999/xlink" width="200" height="200"><defs><style type="text/css"></style></defs><path d="M1022.610286 635.977143C965.632 864.621714 757.979429 1024 519.314286 1024 232.96 1024 0 794.697143 0 512c0-282.770286 232.96-512 519.314286-512 158.573714 0 309.321143 72.777143 407.405714 194.633143v-61.293714c0-23.771429 19.456-42.569143 42.569143-42.569143 23.771429 0 43.227429 18.797714 43.227428 42.569143v255.268571h-255.268571a42.715429 42.715429 0 0 1-43.300571-42.496c0-23.113143 19.456-41.837714 43.300571-41.837714h139.922286a432.054857 432.054857 0 0 0-377.929143-219.282286C280.502857 84.992 85.796571 276.187429 85.796571 512s194.706286 426.934857 433.444572 426.934857c199.021714 0 372.150857-132.754286 420.425143-323.876571a43.666286 43.666286 0 0 1 51.931428-31.012572c10.825143 2.925714 20.187429 10.166857 26.697143 19.529143a42.861714 42.861714 0 0 1 4.388572 32.402286" fill="#ffffff" p-id="3052"></path></svg>