<svg xmlns="http://www.w3.org/2000/svg" viewBox="0 0 376.08 427.22"><defs><style>.cls-1{fill:#edd72f;}.cls-2{fill:#e94c1c;}.cls-3{fill:#fff;}.cls-4{fill:#368bcb;}.cls-5{fill:#fbfbfc;}</style></defs><g id="图层_2" data-name="图层 2"><g id="图层_1-2" data-name="图层 1"><path class="cls-1" d="M85.25,0h200V200h-200ZM268.87,152.3c-1.46-9.12-7.4-16.79-25-23.94-6.13-2.88-13-4.88-15-9.5-.76-2.75-.88-4.25-.38-5.88,1.25-5.38,7.62-7,12.62-5.5a13.54,13.54,0,0,1,8.13,7.5c8.62-5.63,8.62-5.63,14.63-9.37a34.65,34.65,0,0,0-4.88-6.5c-5.25-5.88-12.25-8.88-23.62-8.62l-5.88.74c-5.63,1.38-11,4.38-14.25,8.38-9.5,10.75-6.75,29.5,4.75,37.25,11.37,8.5,28,10.37,30.13,18.38,2,9.75-7.25,12.87-16.38,11.75-6.76-1.5-10.5-4.88-14.63-11.13l-15.25,8.75c1.75,4,3.75,5.75,6.75,9.25,14.5,14.63,50.75,13.88,57.26-8.37.24-.75,2-5.88.62-13.75l.38.55ZM194,91.93H175.27c0,16.14-.07,32.2-.07,48.37,0,10.27.52,19.69-1.15,22.59-2.75,5.75-9.83,5-13.05,4-3.3-1.63-5-3.88-6.92-7.12a6.82,6.82,0,0,0-1.06-1.63l-15.2,9.37a29.53,29.53,0,0,0,11,12.65c7.12,4.25,16.7,5.62,26.72,3.37,6.53-1.88,12.15-5.75,15.1-11.75,4.25-7.75,3.35-17.25,3.3-27.89.1-17.11,0-34.24,0-51.49l0-.47Z"/><path class="cls-2" d="M0,244.37l12.2,157a5.59,5.59,0,0,0,4,5l64.6,20.4a5.55,5.55,0,0,0,3.6,0l64.6-20.4a6.06,6.06,0,0,0,4-5l12.2-157a5.78,5.78,0,0,0-5.8-6.2H5.84A5.67,5.67,0,0,0,0,244.37Z"/><path class="cls-3" d="M133.84,293.17h-80l2.4,22.2H132L127,379l-44.4,14-44.4-14-2.6-33.2h23.2V362l24.4,6.6,24.2-6.6,2-25.8H34.84l-5-63.4h105.6Z"/><path class="cls-4" d="M210.48,238l15.2,170.2,67.6,19,67.6-19L376.08,238Z"/><path class="cls-5" d="M343.88,293.62l-2,21.4-5.8,64.2L293.28,391l-43-11.8-2.8-33.6h21l1.4,17.4,23.4,6.4,23.4-6.4,3.2-29-73.4.2-2.2-19.8,77.2-.8,1.6-21.2-80.8.2-1.4-19.8h104.8Z"/></g></g></svg>