<?xml version="1.0" standalone="no"?><!DOCTYPE svg PUBLIC "-//W3C//DTD SVG 1.1//EN" "http://www.w3.org/Graphics/SVG/1.1/DTD/svg11.dtd"><svg t="1614239446452" class="icon" viewBox="0 0 1024 1024" version="1.1" xmlns="http://www.w3.org/2000/svg" p-id="4104" xmlns:xlink="http://www.w3.org/1999/xlink" width="200" height="200"><defs><style type="text/css"></style></defs><path d="M147.11808 774.8096l-36.80256-21.248 409.984-710.0928 36.80256 21.248z" fill="#E10098" p-id="4105"></path><path d="M101.888 696.832h819.968v42.496H101.888z" fill="#E10098" p-id="4106"></path><path d="M528.25088 957.50656l-410.1376-236.8 21.248-36.80256 410.1376 236.8z m356.28544-617.16224l-410.1376-236.8 21.248-36.80256 410.1376 236.8z" fill="#E10098" p-id="4107"></path><path d="M139.47392 340.18048l-21.248-36.8 410.1376-236.8 21.248 36.80256z" fill="#E10098" p-id="4108"></path><path d="M876.97408 774.81728l-409.984-710.0928 36.80256-21.248 409.984 710.0928zM134.4 275.2h42.496v473.6H134.4z m712.704 0h42.496v473.6h-42.496z" fill="#E10098" p-id="4109"></path><path d="M521.01632 939.52l-18.56-32.14848 356.7104-205.952 18.56 32.14592z" fill="#E10098" p-id="4110"></path><path d="M945.92 762.624c-24.576 42.752-79.36 57.344-122.112 32.768-42.752-24.576-57.344-79.36-32.768-122.112 24.576-42.752 79.36-57.344 122.112-32.768 43.008 24.832 57.6 79.36 32.768 122.112M232.704 350.72c-24.576 42.752-79.36 57.344-122.112 32.768-42.752-24.576-57.344-79.36-32.768-122.112 24.576-42.752 79.36-57.344 122.112-32.768 42.752 24.832 57.344 79.36 32.768 122.112M78.08 762.624c-24.576-42.752-9.984-97.28 32.768-122.112 42.752-24.576 97.28-9.984 122.112 32.768 24.576 42.752 9.984 97.28-32.768 122.112-43.008 24.576-97.536 9.984-122.112-32.768M791.296 350.72c-24.576-42.752-9.984-97.28 32.768-122.112 42.752-24.576 97.28-9.984 122.112 32.768 24.576 42.752 9.984 97.28-32.768 122.112-42.752 24.576-97.536 9.984-122.112-32.768M512 1013.248c-49.408 0-89.344-39.936-89.344-89.344 0-49.408 39.936-89.344 89.344-89.344 49.408 0 89.344 39.936 89.344 89.344 0 49.152-39.936 89.344-89.344 89.344M512 189.44c-49.408 0-89.344-39.936-89.344-89.344 0-49.408 39.936-89.344 89.344-89.344 49.408 0 89.344 39.936 89.344 89.344 0 49.408-39.936 89.344-89.344 89.344" fill="#E10098" p-id="4111"></path></svg>