<?xml version="1.0" standalone="no"?><!DOCTYPE svg PUBLIC "-//W3C//DTD SVG 1.1//EN" "http://www.w3.org/Graphics/SVG/1.1/DTD/svg11.dtd"><svg t="1614239403943" class="icon" viewBox="0 0 1024 1024" version="1.1" xmlns="http://www.w3.org/2000/svg" p-id="3572" xmlns:xlink="http://www.w3.org/1999/xlink" width="200" height="200"><defs><style type="text/css"></style></defs><path d="M1017.856 512c0-66.56-83.968-131.072-212.992-169.984 29.696-132.096 16.384-236.544-41.984-269.312C749.568 64.512 733.184 61.44 716.8 61.44v46.08c9.216 0 16.384 2.048 23.552 5.12 28.672 15.36 40.96 77.824 30.72 156.672-2.048 19.456-6.144 39.936-10.24 60.416-40.96-9.216-84.992-17.408-132.096-22.528-28.672-38.912-56.32-72.704-86.016-103.424 66.56-62.464 131.072-97.28 173.056-97.28V60.416c-56.32 0-132.096 40.96-206.848 110.592C436.224 101.376 362.496 61.44 305.152 61.44v46.08c43.008 0 106.496 34.816 173.056 96.256-29.696 30.72-57.344 64.512-86.016 103.424-47.104 5.12-91.136 12.288-132.096 22.528-5.12-20.48-8.192-40.96-10.24-59.392-9.216-79.872 2.048-140.288 30.72-156.672 6.144-4.096 14.336-5.12 23.552-5.12V61.44c-17.408 0-33.792 4.096-47.104 11.264-58.368 33.792-70.656 138.24-40.96 268.288C89.088 380.928 6.144 445.44 6.144 512s83.968 131.072 212.992 169.984c-29.696 132.096-16.384 236.544 41.984 269.312 13.312 8.192 29.696 11.264 46.08 11.264 56.32 0 132.096-40.96 206.848-110.592C588.8 922.624 662.528 962.56 720.896 962.56c17.408 0 33.792-4.096 47.104-11.264 58.368-33.792 70.656-138.24 40.96-268.288C934.912 643.072 1017.856 578.56 1017.856 512zM749.568 373.76c-7.168 27.648-16.384 54.272-28.672 81.92-8.192-16.384-17.408-33.792-27.648-49.152-9.216-16.384-19.456-32.768-29.696-48.128 30.72 4.096 59.392 9.216 86.016 15.36zM655.36 594.944c-15.36 28.672-32.768 54.272-50.176 79.872-30.72 3.072-61.44 4.096-93.184 4.096s-62.464-1.024-93.184-4.096c-16.384-24.576-33.792-51.2-50.176-78.848-15.36-27.648-30.72-54.272-43.008-82.944 12.288-27.648 27.648-55.296 43.008-82.944 15.36-28.672 32.768-54.272 50.176-79.872 30.72-3.072 61.44-4.096 93.184-4.096s62.464 1.024 93.184 4.096c16.384 24.576 33.792 51.2 50.176 78.848 15.36 27.648 30.72 54.272 43.008 82.944-13.312 27.648-27.648 55.296-43.008 82.944z m66.56-27.648c11.264 27.648 20.48 55.296 28.672 82.944-27.648 6.144-55.296 12.288-84.992 16.384 10.24-15.36 19.456-32.768 29.696-49.152 9.216-16.384 17.408-33.792 26.624-50.176zM513.024 787.456c-18.432-19.456-38.912-41.984-57.344-65.536 18.432 1.024 37.888 1.024 56.32 1.024 19.456 0 38.912 0 57.344-1.024-19.456 24.576-37.888 46.08-56.32 65.536z m-153.6-120.832c-29.696-4.096-57.344-9.216-84.992-16.384 7.168-27.648 16.384-54.272 28.672-81.92 8.192 16.384 17.408 33.792 27.648 49.152 8.192 16.384 17.408 33.792 28.672 49.152z m151.552-430.08c18.432 19.456 38.912 41.984 57.344 65.536-18.432-1.024-37.888-1.024-56.32-1.024-19.456 0-38.912 0-57.344 1.024 18.432-24.576 37.888-46.08 56.32-65.536zM359.424 358.4c-10.24 15.36-19.456 32.768-29.696 49.152-9.216 16.384-18.432 33.792-27.648 49.152-11.264-27.648-20.48-55.296-28.672-82.944 26.624-6.144 55.296-11.264 86.016-15.36zM172.032 616.448C98.304 584.704 52.224 544.768 52.224 512s47.104-72.704 119.808-104.448c17.408-7.168 37.888-14.336 57.344-20.48 11.264 40.96 27.648 82.944 46.08 124.928-18.432 43.008-34.816 84.992-46.08 124.928-20.48-6.144-39.936-13.312-57.344-20.48z m110.592 295.936c-28.672-15.36-40.96-77.824-30.72-156.672 2.048-19.456 6.144-39.936 10.24-60.416 40.96 9.216 84.992 17.408 132.096 22.528 28.672 38.912 56.32 72.704 86.016 103.424-66.56 62.464-131.072 97.28-173.056 97.28-11.264-1.024-18.432-3.072-24.576-6.144z m490.496-157.696c9.216 79.872-2.048 140.288-30.72 156.672-6.144 4.096-14.336 5.12-23.552 5.12-43.008 0-106.496-34.816-173.056-96.256 29.696-30.72 57.344-64.512 86.016-103.424 47.104-5.12 91.136-12.288 132.096-22.528 2.048 20.48 7.168 40.96 9.216 60.416z m78.848-138.24c-17.408 7.168-37.888 14.336-57.344 20.48-11.264-40.96-27.648-82.944-46.08-124.928 18.432-43.008 34.816-84.992 46.08-124.928 20.48 6.144 39.936 13.312 58.368 20.48C926.72 439.296 972.8 479.232 972.8 512c-1.024 32.768-47.104 72.704-120.832 104.448zM304.128 61.44z" fill="#61dafb" p-id="3573"></path><path d="M510.976 512m-94.208 0a94.208 94.208 0 1 0 188.416 0 94.208 94.208 0 1 0-188.416 0Z" fill="#61dafb" p-id="3574"></path></svg>